<?xml version="1.0" encoding="utf-8"?>
<svg viewBox="13.507 12.22 249.187 249.596" xmlns="http://www.w3.org/2000/svg" xmlns:bx="https://boxy-svg.com">
  <defs>
    <radialGradient gradientUnits="userSpaceOnUse" cx="71.422" cy="81.218" r="122.334" id="gradient-0" gradientTransform="matrix(-0.528573, 1.653559, -1.649197, -0.527178, 228.935074, -17.636563)">
      <stop offset="0" style="stop-color: rgb(131, 213, 255);"/>
      <stop offset="1" style="stop-color: color(srgb-linear 0.006 0.004 0.143);"/>
    </radialGradient>
    <radialGradient gradientUnits="userSpaceOnUse" cx="-13.415" cy="262.645" r="122.334" id="gradient-1" gradientTransform="matrix(0.19208, 1.978435, -1.626657, 0.157928, 481.435871, 37.810443)">
      <stop offset="0" style="stop-color: rgb(117, 179, 255);"/>
      <stop offset="1" style="stop-color: rgb(2, 26, 59);"/>
    </radialGradient>
    <radialGradient gradientUnits="userSpaceOnUse" cx="108.602" cy="49.926" r="56.419" id="gradient-2" gradientTransform="matrix(0.665969, 2.898781, -3.189634, 0.73279, 194.360907, -280.01846)">
      <stop offset="0" style="stop-color: rgb(255, 255, 255);"/>
      <stop offset="1" style="stop-color: rgb(137, 145, 157);"/>
    </radialGradient>
    <filter id="drop-shadow-filter-0" color-interpolation-filters="sRGB" x="-50%" y="-50%" width="200%" height="200%" bx:preset="drop-shadow 1 4 5 4 0.51 #0d0024">
      <feGaussianBlur in="SourceAlpha" stdDeviation="4"/>
      <feOffset dx="4" dy="5"/>
      <feComponentTransfer result="offsetblur">
        <feFuncA id="spread-ctrl" type="linear" slope="1.02"/>
      </feComponentTransfer>
      <feFlood flood-color="#0d0024"/>
      <feComposite in2="offsetblur" operator="in"/>
      <feMerge>
        <feMergeNode/>
        <feMergeNode in="SourceGraphic"/>
      </feMerge>
    </filter>
  </defs>
  <ellipse style="paint-order: fill; fill-rule: nonzero; stroke: url('#gradient-1'); fill: url('#gradient-0'); stroke-width: 3px;" cx="138.046" cy="136.924" rx="122.334" ry="122.334"/>
  <path d="M 97.339 38.007 L 142.979 38.007 Q 166.779 38.007 177.699 49.067 Q 188.619 60.127 188.619 83.087 L 188.619 95.127 Q 188.619 125.647 168.459 133.767 L 168.459 134.327 Q 179.659 137.687 184.279 148.047 Q 188.899 158.407 188.899 175.767 L 188.899 210.207 Q 188.899 218.607 189.459 223.787 Q 190.019 228.967 192.259 234.007 L 160.899 234.007 Q 159.219 229.247 158.659 225.047 Q 158.099 220.847 158.099 209.927 L 158.099 174.087 Q 158.099 160.647 153.759 155.327 Q 149.419 150.007 138.779 150.007 L 128.139 150.007 L 128.139 234.007 L 97.339 234.007 Z M 139.339 122.007 Q 148.579 122.007 153.199 117.247 Q 157.819 112.487 157.819 101.287 L 157.819 86.167 Q 157.819 75.527 154.039 70.767 Q 150.259 66.007 142.139 66.007 L 128.139 66.007 L 128.139 122.007 Z" style="fill: url('#gradient-2'); stroke: rgb(255, 255, 255); stroke-width: 2px; filter: url('#drop-shadow-filter-0');"/>
</svg>